<?xml version="1.0" encoding="utf-8"?>
<!-- Generator: Adobe Illustrator 26.3.1, SVG Export Plug-In . SVG Version: 6.00 Build 0)  -->
<svg version="1.1" id="Layer_1" xmlns="http://www.w3.org/2000/svg" xmlns:xlink="http://www.w3.org/1999/xlink" x="0px" y="0px"
	 viewBox="0 0 72 72" style="enable-background:new 0 0 72 72;" xml:space="preserve">
<style type="text/css">
	.st0{display:none;}
	.st1{display:inline;}
	.st2{display:inline;fill:#FFFFFF;}
	.st3{fill:#FFFFFF;}
</style>
<g id="Layer_6" class="st0">
	<rect x="-1.2" class="st1" width="73.2" height="73.2"/>
</g>
<g id="Layer_1_00000160188171258095425540000013006870490263346319_" class="st0">
	<path class="st2" d="M17.5,11.7c0.3-0.4,1.4,0.1,2.5,1c2.3,1.9,5.3,6.1,4.9,12.4c-0.5,9.4-3.4,11.8-1.4,14.7s3.5,1.1,3.5,1.1
		s-1.2-7.2,4.4-15c5.7-8-0.8-16.6-0.2-17.8c0.2-0.4,1.2,0.2,2.1,0.9c2.3,1.8,6.1,5.6,6.6,11c0.7,7.6-1.8,8.5-2.7,12.2
		c-0.9,3.7,0.9,7.2,1.9,7.4c1.1,0.2,3.5,0.3,3.2-1.4c-0.3-1.8,1.3-8.3,3.6-11.4c6-8.1-0.2-13.6,0.7-14.4c0.9-0.8,2.2,0.6,3.2,1.5
		c2.4,2,4.9,5.9,4.9,10.4C54.9,34.9,49,39.6,51.6,46c5.7,2.5,8.1,12.2,0.7,16.3s-14.8,2.1-17.7,0.9s-6.5-2.8-8.1-2.8
		c0,0,1.8-1.8,5.5-1.8s6.7-0.5,9.5-3.7c0,0-7.1,1.1-10.6-3.2c0,0-10.5,6.4-18.4-2.8c-1-1.2-1.9-3.2-1.9-7.1c0-2.3,1.1-5.9,4.8-10.6
		C22.2,22.9,16.9,12.5,17.5,11.7z"/>
</g>
<g id="Layer_2_00000036211255909684666220000015433624349242094735_" class="st0">
	<path class="st2" d="M42.8,54.8c0,0,0.2,6.1-4.1,7.7c-4.3,1.7-5.6,2.9-7.6,1.9s-2.7-3.9-1.1-5.3s5.7-3.3,8-3.8
		C40.3,54.8,42.8,54.8,42.8,54.8z"/>
	<path class="st2" d="M48.7,50.8c0,0,0.9-4.6-3.1-8.3c-3.9-3.7-6.9-2.7-12.6-2.4s-11.2-2.5-12.1-7.4c-1-4.9,2.9-8.8,5.8-11.3
		s12.4-3.8,17.5-0.7s5.8,6.1,4.4,7.2s-3.3,0.1-6-2.4c-2.6-2.5-9.6-2.4-12.8-0.1c-2.2,1.6-3.3,3.7-2.9,5.8c0.6,2.9,3.7,5.3,7.9,4.7
		s5.5-2.5,9.8-0.5c3.1,1.5,9.2,1.1,10.9-2.1s6.2-12.5-3.1-18.5s-20.4-7.5-29.8-2.1S10.7,26,10.2,31.1S9.5,43.5,16.2,47
		s9,2.7,14.5,2.6s8.4-2.7,9.6-2.3C41.5,47.8,43.2,51.3,48.7,50.8z"/>
</g>
<g id="Layer_3" class="st0">
	<path class="st2" d="M39,49.2c-1.5-3.1-5.3-3.5-7.5-6.6c-1.7-2.3-3-6.5-1.2-8.7c2-2.5,4-3.9,7.2-3.5c3.4,0.4,6,2.7,6.1,6.1
		c0.1,3.4-1.4,5.5-4.6,6.3c0,0,5.3,4.6,6.5,7.7c1.8,5.1,0,10-3.4,13.2c-3.5,3.2-7.3,2.7-8.4,1.8s-2.6-6-1.2-8.6
		C33.7,54.4,41.5,54.3,39,49.2z"/>
	<path class="st2" d="M11.7,17.9c2.1-1.4,7-1.7,9.1,0s4.9,5.1,4.8,6.9c-0.1,1.9-0.5,5.3-1.8,6.4c-1.3,1.1-3.3,2-4.4-1
		s0.7-4.5-2.3-7.3S10.1,19,11.7,17.9z"/>
	<path class="st2" d="M4.5,31.4c-0.6,1.4,3.4,2,4.4,4.8c1,2.8-0.4,5.6,1.9,8.2s7.4,4.1,8.3,1.5c0.9-2.6,1.1-8.7-1.7-11.1
		s-6.3-4.3-8.7-4.7C6.6,29.7,4.9,30.3,4.5,31.4z"/>
	<path class="st2" d="M33.1,4.9c-1.6,0.4-2.3,4-2.2,5.2s2.5,2.7,1.1,6.1c-0.9,2.4,1.4,5.1,4.3,4.3c3-0.8,4.8-1,4.7-4.4
		s-0.9-4.7-3.9-6.5c-3-1.8-2-3.5-2.7-4.3C33.8,4.5,33.1,4.9,33.1,4.9z"/>
	<path class="st2" d="M54.8,46.5c-2.1-3.4-1.5-7.3,1.7-9.6c3.2-2.3,4.3-0.8,5.2-2.2s2-3.8,2.9-3.4c1,0.4,1.8,4.5,0.7,7
		s-2.6,1.9-2.8,3.9s-0.2,7.4-3.8,6.9S54.8,46.5,54.8,46.5z"/>
	<path class="st2" d="M52.5,28.1c-2.1-0.7-2.1-3.9-1.5-5.7c0.6-1.8,3.3-1.4,3.4-3.1s0.5-3.8-0.4-4.7c-0.9-1,3.1-0.9,4.5,1.3
		s2.8,8.4-0.7,11.1C54.4,29.6,52.5,28.1,52.5,28.1z"/>
	<path class="st2" d="M22.5,44c0,0-5.2-3.2-4.6-9.1s5-12.1,8.7-14.2s6.4-2.5,10.3-2.5s13,1.5,16,7.5c3,6,3.5,12.2,2.7,15.6
		c-0.9,3.4-2.7,7.9-4.1,8.2c-1.4,0.3-3.8-1.5-4.1-3.2c-0.3-1.8-2.4-3.2-1-5.5c1.4-2.3,1.9-5.1,1.4-8s-4.3-7.4-9.9-7.8
		s-7.6,0.7-10.1,3.2s-3.8,5.9-3.7,9c0.1,3.9,3.1,6,3,7.7C27,47.1,24.5,46.2,22.5,44z"/>
</g>
<g id="Layer_4">
	<path class="st3" d="M63.9,57.2c-1.7,0.7-6.5,1.5-8.1,1.5s-13.9-0.7-20.5,0c-6.7,0.7-16,3.1-17,1.5c-1-1.5,0.2-8.3,3.4-14.5
		s8.1-20.1,9.3-23.2c1.2-3.1,1.2-7.8,5.5-6.4s20.5,35.8,20.5,35.8l4.4,0.4C61.4,52.3,65.3,56.6,63.9,57.2z M36.5,26.6
		c-0.7-0.6-6.9,17.8-8.1,20.7s-3.1,6.4-1.7,5.6s22-0.5,22.6-1C50,51.4,37.2,27.2,36.5,26.6z"/>
	<path class="st3" d="M56.8,42.6c0,0,8.9,3.9,9.5-0.2c0.6-4.1-7.7-12.1-9-16.9c-1.3-4.7-2.1,1.5-8.7,6.7
		c-11.4,9.1-28.9,8.8-30.7,5.3c-2.8-5.2,4.8-7.2,4.8-7.8c0-1-3.6-2.3-7.5-1c-2,0.7-4.3,3-5,4.5C8.1,37.8,9.3,43,9.8,43.6
		c1.2,1.3,2.4,5.5,4.3,3.6c2.2-2.2,10.4,0.3,22.3-2.8C46.1,41.8,54,32.8,54,32.8S58.1,38.2,56.8,42.6z"/>
</g>
<g id="Layer_5" class="st0">
	<g class="st1">
		<path class="st3" d="M18.2,32C18.2,32,18.2,32,18.2,32C18.1,32,18.1,32,18.2,32z"/>
		<path class="st3" d="M34.3,7.1c-6.8,1.3-16.7,8.1-19.2,10.6s-7.7,8.9-7.7,16.8S7.8,41,11.5,48c6,11.2,14-6,16.9-4.4
			c10.9,6.2,5.9,14.3-0.6,14.1c-1.9-0.1-0.5,2.7,0,4.6c1.9,7,27.9,0.7,19.1-8.3c-3.5-3.6-10.9-8-15.5-15.6s-15.8,4.5-15.1-2.2
			S23.5,24,26.5,21.5c3.4-2.8,7.7-5.3,16.3-6.3c7.9-0.9,14.6,6.3,14.6,11.3c0,5.8-6.6,9.5-10.4,6.6c0,0,0.2-2.1-0.8-3.4
			c-1.7-2-6.4-3.1-8.7,0.7c-1.7,2.9-0.7,7.2,3,9.3c3.3,1.9,18.7,6.7,19.8-12C61.2,10.6,44.1,5.3,34.3,7.1z"/>
	</g>
</g>
</svg>
