<?xml version="1.0" encoding="utf-8"?>
<!-- Generator: Adobe Illustrator 26.3.1, SVG Export Plug-In . SVG Version: 6.00 Build 0)  -->
<svg version="1.1" xmlns="http://www.w3.org/2000/svg" xmlns:xlink="http://www.w3.org/1999/xlink" x="0px" y="0px"
	 viewBox="0 0 72 72" style="enable-background:new 0 0 72 72;" xml:space="preserve">
<style type="text/css">
	.st0{display:none;}
	.st1{display:inline;fill:#020202;}
	.st2{display:inline;}
	.st3{fill:#020202;}
</style>
<g id="Layer_1" class="st0">
	<path class="st1" d="M17.53,11.7c0.31-0.39,1.44,0.13,2.53,1c2.32,1.85,5.26,6.06,4.89,12.43c-0.53,9.37-3.36,11.84-1.41,14.67
		s3.54,1.06,3.54,1.06s-1.19-7.15,4.42-15.03c5.71-8.01-0.84-16.57-0.19-17.81c0.23-0.44,1.18,0.24,2.1,0.95
		c2.31,1.78,6.07,5.59,6.57,11.03c0.71,7.6-1.77,8.48-2.65,12.2c-0.88,3.71,0.88,7.25,1.94,7.42c1.06,0.18,3.54,0.35,3.18-1.41
		c-0.35-1.77,1.27-8.26,3.59-11.43c5.95-8.13-0.17-13.61,0.65-14.38c0.87-0.82,2.18,0.63,3.24,1.53c2.4,2.04,4.89,5.92,4.89,10.4
		c0.06,10.52-5.83,15.29-3.18,21.65c5.66,2.47,8.13,12.2,0.71,16.26s-14.85,2.12-17.68,0.88c-2.83-1.24-6.54-2.83-8.13-2.83
		c0,0,1.77-1.77,5.48-1.77s6.72-0.53,9.55-3.71c0,0-7.07,1.06-10.61-3.18c0,0-10.5,6.4-18.41-2.83c-1-1.16-1.89-3.18-1.89-7.06
		c0-2.31,1.1-5.94,4.85-10.58C22.23,22.87,16.88,12.52,17.53,11.7z"/>
</g>
<g id="Layer_2" class="st0">
	<path class="st1" d="M42.81,54.85c0,0,0.2,6.06-4.07,7.74c-4.27,1.68-5.63,2.88-7.57,1.95c-1.94-0.93-2.73-3.94-1.15-5.34
		s5.7-3.31,7.99-3.84C40.31,54.82,42.81,54.85,42.81,54.85z"/>
	<path class="st1" d="M48.69,50.81c0,0,0.86-4.63-3.06-8.32c-3.92-3.68-6.89-2.73-12.6-2.38s-11.17-2.5-12.12-7.37
		c-0.95-4.87,2.85-8.79,5.82-11.29s12.36-3.8,17.47-0.71s5.85,6.06,4.41,7.25c-1.44,1.19-3.32,0.08-5.96-2.44
		c-2.61-2.5-9.57-2.44-12.83-0.06c-2.2,1.6-3.31,3.69-2.85,5.82c0.62,2.91,3.74,5.31,7.9,4.73s5.47-2.48,9.8-0.46
		c3.11,1.45,9.25,1.07,10.92-2.14s6.19-12.48-3.08-18.54S32.09,7.44,22.7,12.79s-12,13.19-12.48,18.3s-0.71,12.36,5.94,15.92
		c6.65,3.56,9.03,2.73,14.5,2.61s8.44-2.73,9.62-2.26C41.47,47.84,43.23,51.29,48.69,50.81z"/>
</g>
<g id="Layer_3" class="st0">
	<path class="st1" d="M39.01,49.16c-1.49-3.1-5.28-3.49-7.53-6.57c-1.68-2.31-2.97-6.51-1.19-8.7c2-2.46,3.98-3.91,7.16-3.52
		c3.42,0.42,5.98,2.73,6.06,6.14c0.08,3.42-1.36,5.49-4.57,6.28c0,0,5.35,4.59,6.49,7.71c1.85,5.06,0.01,10-3.43,13.18
		c-3.45,3.18-7.29,2.71-8.42,1.84s-2.58-6.04-1.22-8.59C33.73,54.39,41.5,54.33,39.01,49.16z"/>
	<path class="st1" d="M11.72,17.94c2.13-1.37,6.98-1.72,9.13-0.02s4.85,5.08,4.79,6.93c-0.06,1.85-0.47,5.28-1.78,6.35
		c-1.31,1.06-3.3,2.02-4.42-1.02c-1.12-3.04,0.68-4.55-2.26-7.26S10.07,19,11.72,17.94z"/>
	<path class="st1" d="M4.46,31.35c-0.64,1.43,3.4,1.98,4.38,4.82c0.98,2.85-0.45,5.57,1.93,8.18c2.38,2.61,7.43,4.14,8.31,1.54
		c0.88-2.6,1.08-8.72-1.71-11.11s-6.32-4.29-8.71-4.73C6.56,29.67,4.94,30.29,4.46,31.35z"/>
	<path class="st1" d="M33.12,4.87c-1.6,0.4-2.26,3.96-2.18,5.15c0.08,1.19,2.46,2.68,1.14,6.14c-0.91,2.38,1.36,5.1,4.33,4.34
		c2.97-0.76,4.81-1,4.65-4.42c-0.16-3.42-0.92-4.73-3.88-6.48c-2.96-1.75-2.05-3.53-2.69-4.33C33.84,4.48,33.12,4.87,33.12,4.87z"/>
	<path class="st1" d="M54.8,46.51c-2.09-3.36-1.51-7.29,1.72-9.63c3.24-2.34,4.31-0.77,5.24-2.21c0.93-1.44,1.99-3.79,2.95-3.37
		c0.97,0.42,1.8,4.49,0.66,6.95c-1.14,2.46-2.62,1.94-2.85,3.94c-0.23,2-0.15,7.38-3.81,6.86S54.8,46.51,54.8,46.51z"/>
	<path class="st1" d="M52.5,28.08c-2.06-0.7-2.09-3.87-1.51-5.71c0.58-1.83,3.28-1.42,3.43-3.13s0.48-3.75-0.42-4.72
		c-0.9-0.97,3.08-0.9,4.47,1.3s2.76,8.37-0.65,11.08C54.42,29.6,52.5,28.08,52.5,28.08z"/>
	<path class="st1" d="M22.52,43.99c0,0-5.19-3.18-4.56-9.14S23,22.76,26.68,20.62s6.41-2.54,10.26-2.54
		c3.85,0,12.99,1.51,15.95,7.55c2.97,6.04,3.51,12.21,2.65,15.59c-0.87,3.38-2.65,7.87-4.09,8.22c-1.44,0.35-3.77-1.48-4.09-3.22
		c-0.32-1.75-2.4-3.18-1.04-5.49c1.36-2.31,1.92-5.09,1.44-8.03s-4.34-7.39-9.87-7.79s-7.62,0.73-10.11,3.24s-3.77,5.95-3.68,9.02
		c0.12,3.87,3.06,5.96,2.97,7.67C26.96,47.06,24.5,46.16,22.52,43.99z"/>
</g>
<g id="Layer_4" class="st0">
	<path class="st1" d="M11.33,19.36c1.66-0.7,6.51-1.48,8.13-1.48s13.9,0.74,20.55,0c6.65-0.74,15.97-3.06,17.01-1.53
		c1.04,1.53-0.15,8.33-3.4,14.54s-8.13,20.11-9.32,23.22c-1.18,3.11-1.18,7.84-5.47,6.36c-4.29-1.48-20.55-35.79-20.55-35.79
		l-4.44-0.44C13.84,24.24,9.91,19.96,11.33,19.36z M38.68,50.02c0.69,0.59,6.9-17.84,8.08-20.7c1.18-2.86,3.06-6.41,1.68-5.62
		c-1.38,0.79-21.98,0.49-22.58,0.99S37.99,49.43,38.68,50.02z"/>
	<path class="st1" d="M18.46,33.96c0,0-8.87-3.91-9.46,0.19c-0.59,4.09,7.65,12.14,8.99,16.87s2.14-1.47,8.66-6.68
		c11.41-9.11,28.86-8.75,30.74-5.26c2.81,5.21-4.8,7.19-4.81,7.75c-0.01,1,3.61,2.32,7.46,0.98c2.02-0.7,4.33-3.02,5.01-4.5
		c2.1-4.55,0.91-9.76,0.4-10.35c-1.16-1.34-2.38-5.48-4.28-3.56c-2.17,2.2-10.37-0.3-22.31,2.82c-9.7,2.53-17.64,11.56-17.64,11.56
		S17.11,38.35,18.46,33.96z"/>
</g>
<g id="Layer_5" class="st0">
	<g class="st2">
		<path class="st3" d="M18.23,31.99c0.01,0,0.01-0.01,0.02-0.01C18.14,32.02,18.12,32.03,18.23,31.99z"/>
		<path class="st3" d="M34.34,7.1c-6.82,1.25-16.71,8.15-19.25,10.62s-7.67,8.89-7.67,16.82s0.41,6.5,4.09,13.42
			C17.48,59.14,25.56,42,28.4,43.6c10.94,6.16,5.86,14.32-0.63,14.07c-1.86-0.07-0.48,2.72,0.01,4.56
			c1.89,7.05,27.94,0.65,19.15-8.32C43.42,50.33,36,45.95,31.45,38.33c-4.55-7.62-15.77,4.51-15.06-2.17s7.07-12.21,10.1-14.7
			c3.42-2.82,7.66-5.26,16.34-6.27c7.9-0.92,14.57,6.28,14.57,11.26c0,5.79-6.63,9.54-10.38,6.56c0,0,0.23-2.1-0.8-3.36
			c-1.68-2.05-6.42-3.15-8.7,0.71c-1.73,2.92-0.67,7.19,2.97,9.28c3.33,1.92,18.72,6.69,19.77-11.99
			C61.21,10.56,44.13,5.31,34.34,7.1z"/>
	</g>
</g>
<g id="Layer_6">
	<path d="M30.96,11.98l-7.38-1.53c0,0,15.99-7.33,15.24,0.75c-0.41,4.46-3.35,7.82-4.92,8.7c-3.51,1.98-3.56,1.4-3.26-2.62
		C30.75,14.37,30.96,11.98,30.96,11.98z M32.43,27.55c-2.71,1.29-1.56-4.3-1.92-5.83c-1.92,0.89-6.4,3.06-6.92,6.22
		c-2,12.08-5.76,6.33-8.2,10.07c-2.44,3.75,0.81,3.12,2.03,3.95c1.22,0.83,21.9-10.84,24.41-11.34c5.29-1.06-1.32,8.79-1.32,8.79
		s-8.57,4.96-9.59,5.37c-1.02,0.42,2.1,6.67,3.57,9.79c1.46,3.12,2.45,8.74,2.06,9.78c-0.39,1.04,2.25-1.32,2.86-6.28
		c0.61-4.96,0.87-10.01,0.87-10.01l3.61-5.98l11.77-9.31c0,0,1.83-4.33,1.83-6.45C57.5,22.71,44.98,21.56,32.43,27.55z"/>
</g>
<g id="Layer_7" class="st0">
	<path class="st2" d="M8.18,37.31c4.8-4.02,13.57-9.17,20.94-6.41s9.78,2.7,15.6-0.59s19.12,5.96,19.12,5.96S48.5,44.8,44.71,42.22
		c-3.8-2.58-10.03-3.73-15.6,0C23.55,45.95,8.18,37.31,8.18,37.31z M17.68,54.6c0,0,11.73,5.91,18.61,6c8.35,0.1,19.52-6,19.52-6
		s-13.74-6-19.46-6S17.68,54.6,17.68,54.6z M17.68,17.4c0,0,11.73,5.91,18.61,6c8.35,0.1,19.52-6,19.52-6s-13.74-6-19.46-6
		S17.68,17.4,17.68,17.4z"/>
</g>
</svg>
