<svg id="visual" viewBox="0 0 960 540" width="960" height="540" xmlns="http://www.w3.org/2000/svg" xmlns:xlink="http://www.w3.org/1999/xlink" version="1.1"><path d="M0 304L20 317.2C40 330.3 80 356.7 120 368.8C160 381 200 379 240 372.2C280 365.3 320 353.7 360 353.8C400 354 440 366 480 364.7C520 363.3 560 348.7 600 335.8C640 323 680 312 720 308.7C760 305.3 800 309.7 840 308.7C880 307.7 920 301.3 940 298.2L960 295L960 541L940 541C920 541 880 541 840 541C800 541 760 541 720 541C680 541 640 541 600 541C560 541 520 541 480 541C440 541 400 541 360 541C320 541 280 541 240 541C200 541 160 541 120 541C80 541 40 541 20 541L0 541Z" fill="#634db4"></path><path d="M0 397L20 394.7C40 392.3 80 387.7 120 389.5C160 391.3 200 399.7 240 395.5C280 391.3 320 374.7 360 369.5C400 364.3 440 370.7 480 379.5C520 388.3 560 399.7 600 395.2C640 390.7 680 370.3 720 368.3C760 366.3 800 382.7 840 388.5C880 394.3 920 389.7 940 387.3L960 385L960 541L940 541C920 541 880 541 840 541C800 541 760 541 720 541C680 541 640 541 600 541C560 541 520 541 480 541C440 541 400 541 360 541C320 541 280 541 240 541C200 541 160 541 120 541C80 541 40 541 20 541L0 541Z" fill="#603987"></path><path d="M0 428L20 424C40 420 80 412 120 404.8C160 397.7 200 391.3 240 389C280 386.7 320 388.3 360 397.2C400 406 440 422 480 424C520 426 560 414 600 405.8C640 397.7 680 393.3 720 389.3C760 385.3 800 381.7 840 390.2C880 398.7 920 419.3 940 429.7L960 440L960 541L940 541C920 541 880 541 840 541C800 541 760 541 720 541C680 541 640 541 600 541C560 541 520 541 480 541C440 541 400 541 360 541C320 541 280 541 240 541C200 541 160 541 120 541C80 541 40 541 20 541L0 541Z" fill="#52295f"></path><path d="M0 423L20 429.3C40 435.7 80 448.3 120 453.3C160 458.3 200 455.7 240 450.5C280 445.3 320 437.7 360 439.5C400 441.3 440 452.7 480 453.5C520 454.3 560 444.7 600 436.2C640 427.7 680 420.3 720 422C760 423.7 800 434.3 840 437.3C880 440.3 920 435.7 940 433.3L960 431L960 541L940 541C920 541 880 541 840 541C800 541 760 541 720 541C680 541 640 541 600 541C560 541 520 541 480 541C440 541 400 541 360 541C320 541 280 541 240 541C200 541 160 541 120 541C80 541 40 541 20 541L0 541Z" fill="#3d1c3c"></path><path d="M0 439L20 448.2C40 457.3 80 475.7 120 478.7C160 481.7 200 469.3 240 465.7C280 462 320 467 360 467.2C400 467.3 440 462.7 480 462C520 461.3 560 464.7 600 467.3C640 470 680 472 720 476.8C760 481.7 800 489.3 840 488.7C880 488 920 479 940 474.5L960 470L960 541L940 541C920 541 880 541 840 541C800 541 760 541 720 541C680 541 640 541 600 541C560 541 520 541 480 541C440 541 400 541 360 541C320 541 280 541 240 541C200 541 160 541 120 541C80 541 40 541 20 541L0 541Z" fill="#251220"></path><path d="M0 516L20 515.2C40 514.3 80 512.7 120 507.3C160 502 200 493 240 495.2C280 497.3 320 510.7 360 509.5C400 508.3 440 492.7 480 485.5C520 478.3 560 479.7 600 479.2C640 478.7 680 476.3 720 481.2C760 486 800 498 840 500.8C880 503.7 920 497.3 940 494.2L960 491L960 541L940 541C920 541 880 541 840 541C800 541 760 541 720 541C680 541 640 541 600 541C560 541 520 541 480 541C440 541 400 541 360 541C320 541 280 541 240 541C200 541 160 541 120 541C80 541 40 541 20 541L0 541Z" fill="#060003"></path></svg>